{
	"asset":{
		"generator":"Khronos glTF Blender I/O v3.6.27",
		"version":"2.0"
	},
	"scene":0,
	"scenes":[
		{
			"name":"Scene",
			"nodes":[
				0
			]
		}
	],
	"nodes":[
		{
			"mesh":0,
			"name":"BezierCurve",
			"rotation":[
				0,
				-0.5711824893951416,
				0,
				0.8208231329917908
			],
			"translation":[
				-20.683340072631836,
				8.161686897277832,
				17.487730026245117
			]
		}
	],
	"animations":[
		{
			"channels":[
				{
					"sampler":0,
					"target":{
						"node":0,
						"path":"translation"
					}
				},
				{
					"sampler":1,
					"target":{
						"node":0,
						"path":"rotation"
					}
				},
				{
					"sampler":2,
					"target":{
						"node":0,
						"path":"scale"
					}
				}
			],
			"name":"BezierCurve",
			"samplers":[
				{
					"input":4,
					"interpolation":"LINEAR",
					"output":5
				},
				{
					"input":4,
					"interpolation":"LINEAR",
					"output":6
				},
				{
					"input":4,
					"interpolation":"LINEAR",
					"output":7
				}
			]
		}
	],
	"meshes":[
		{
			"name":"BezierCurve",
			"primitives":[
				{
					"attributes":{
						"POSITION":0,
						"NORMAL":1,
						"TEXCOORD_0":2
					},
					"indices":3
				}
			]
		}
	],
	"accessors":[
		{
			"bufferView":0,
			"componentType":5126,
			"count":9007,
			"max":[
				-8.883038520812988,
				0.24885128438472748,
				-8.059664726257324
			],
			"min":[
				-16.895496368408203,
				-0.003319774754345417,
				-33.1954345703125
			],
			"type":"VEC3"
		},
		{
			"bufferView":1,
			"componentType":5126,
			"count":9007,
			"type":"VEC3"
		},
		{
			"bufferView":2,
			"componentType":5126,
			"count":9007,
			"type":"VEC2"
		},
		{
			"bufferView":3,
			"componentType":5123,
			"count":49740,
			"type":"SCALAR"
		},
		{
			"bufferView":4,
			"componentType":5126,
			"count":101,
			"max":[
				4.166666666666667
			],
			"min":[
				0
			],
			"type":"SCALAR"
		},
		{
			"bufferView":5,
			"componentType":5126,
			"count":101,
			"type":"VEC3"
		},
		{
			"bufferView":6,
			"componentType":5126,
			"count":101,
			"type":"VEC4"
		},
		{
			"bufferView":7,
			"componentType":5126,
			"count":101,
			"type":"VEC3"
		}
	],
	"bufferViews":[
		{
			"buffer":0,
			"byteLength":108084,
			"byteOffset":0,
			"target":34962
		},
		{
			"buffer":0,
			"byteLength":108084,
			"byteOffset":108084,
			"target":34962
		},
		{
			"buffer":0,
			"byteLength":72056,
			"byteOffset":216168,
			"target":34962
		},
		{
			"buffer":0,
			"byteLength":99480,
			"byteOffset":288224,
			"target":34963
		},
		{
			"buffer":0,
			"byteLength":404,
			"byteOffset":387704
		},
		{
			"buffer":0,
			"byteLength":1212,
			"byteOffset":388108
		},
		{
			"buffer":0,
			"byteLength":1616,
			"byteOffset":389320
		},
		{
			"buffer":0,
			"byteLength":1212,
			"byteOffset":390936
		}
	],
	"buffers":[
		{
			"byteLength":392148,
			"uri":"data:application/octet-stream;base64,"
		}
	]
}
