<svg width="24" height="24" viewBox="0 0 24 24" fill="none" xmlns="http://www.w3.org/2000/svg">
<g clipPath="url(#clip0_2032_3114)">
<path d="M18.25 14.8291H12C11.5858 14.8291 11.25 15.1649 11.25 15.5791V19.3281H10.0973C10.3533 18.8866 10.5 18.3742 10.5 17.8281C10.5 16.1739 9.15422 14.8281 7.5 14.8281C5.84578 14.8281 4.5 16.1739 4.5 17.8281C4.5 18.3742 4.64673 18.8866 4.90271 19.3281H3.75C3.33578 19.3281 3 19.6639 3 20.0781V23.0781C3 23.4923 3.33578 23.8281 3.75 23.8281C4.16422 23.8281 4.5 23.4923 4.5 23.0781V20.8281H11.9611C11.974 20.8288 11.9869 20.8291 12 20.8291H19.5V23.0781C19.5 23.4923 19.8358 23.8281 20.25 23.8281C20.6642 23.8281 21 23.4923 21 23.0781V20.0791V20.0781V17.5791C21 16.0628 19.7663 14.8291 18.25 14.8291ZM6 17.8281C6 17.001 6.6729 16.3281 7.5 16.3281C8.3271 16.3281 9 17.001 9 17.8281C9 18.6552 8.3271 19.3281 7.5 19.3281C6.6729 19.3281 6 18.6552 6 17.8281ZM12.75 16.3291H18.25C18.9393 16.3291 19.5 16.8899 19.5 17.5791V19.3291H12.75V16.3291Z" fill="#06a497"/>
<path d="M23.6662 7.45499L20.6828 5.46561C20.6709 5.45717 20.6588 5.44903 20.6463 5.44128L13.2481 0.507916C12.49 0.00259399 11.5102 0.00252074 10.752 0.50799L3.35382 5.44128C3.34139 5.44903 3.32925 5.45717 3.31733 5.46561L0.333979 7.45499C-0.0106253 7.68478 -0.103716 8.15046 0.126081 8.49509C0.355879 8.83969 0.821577 8.93278 1.16618 8.70298L3.00008 7.48009V12.578C3.00008 12.9922 3.33586 13.328 3.75008 13.328C4.1643 13.328 4.50008 12.9922 4.50008 12.578V6.47985L11.5841 1.75606C11.8368 1.58758 12.1634 1.5876 12.416 1.75599L19.5001 6.47985V12.578C19.5001 12.9922 19.8359 13.328 20.2501 13.328C20.6643 13.328 21.0001 12.9922 21.0001 12.578V7.48009L22.834 8.70298C22.9619 8.78826 23.1064 8.82907 23.2494 8.82907C23.4917 8.82906 23.7295 8.71181 23.8741 8.49509C24.1039 8.15046 24.0108 7.68478 23.6662 7.45499Z" fill="#06a497"/>
</g>
<defs>
<clipPath id="clip0_2032_3114">
<rect width="24" height="24" fill="white"/>
</clipPath>
</defs>
</svg>
