<svg width="24" height="24" viewBox="0 0 24 24" fill="none" xmlns="http://www.w3.org/2000/svg">
<path d="M23.1934 6.08445C22.438 2.58296 21.5805 2.13379 20.9067 2.13379C20.4882 2.13379 20.1411 2.48088 20.1411 2.89942V21.101C20.1411 21.5196 20.4882 21.8667 20.9067 21.8667C21.3253 21.8667 21.6724 21.5196 21.6724 21.101V15.2822H22.8463C23.1526 15.2822 23.4384 15.1597 23.663 14.9454C23.8876 14.731 23.9999 14.4349 23.9999 14.1185C23.9795 11.2703 23.6834 8.34051 23.1934 6.08445ZM21.6724 13.751V6.31924C22.0705 8.10572 22.4074 10.6782 22.4584 13.751H21.6724Z" fill="#06a497"/>
<path d="M5.42067 2.13379C5.00213 2.13379 4.65504 2.48088 4.65504 2.89942V6.76841C4.65504 7.17675 4.49171 7.57488 4.19566 7.87092C4.10379 7.9628 3.98128 8.02405 3.85878 8.0853V2.89942C3.85878 2.48088 3.5117 2.13379 3.09315 2.13379C2.67461 2.13379 2.32752 2.48088 2.32752 2.89942V8.0853C2.20502 8.02405 2.08252 7.9628 1.99064 7.87092C1.70481 7.58509 1.53126 7.17675 1.53126 6.76841V2.89942C1.53126 2.48088 1.18418 2.13379 0.765632 2.13379C0.347086 2.13379 0 2.48088 0 2.89942V6.76841C0 7.5953 0.316461 8.37113 0.90855 8.95302C1.30668 9.35114 1.79668 9.61656 2.32752 9.74927V21.0908C2.32752 21.5094 2.67461 21.8565 3.09315 21.8565C3.5117 21.8565 3.85878 21.5094 3.85878 21.0908V9.74927C4.38962 9.61656 4.87963 9.35114 5.27775 8.95302C5.85963 8.37114 6.1863 7.5953 6.1863 6.76841V2.89942C6.1863 2.48088 5.83922 2.13379 5.42067 2.13379Z" fill="#06a497"/>
<path d="M17.4565 2.80796C17.2421 2.62421 16.9767 2.51192 16.6909 2.52213H8.85081C8.57518 2.52213 8.29955 2.62421 8.09538 2.80796C7.88101 2.99171 7.7483 3.24692 7.70746 3.52255L6.98267 8.99427C6.98267 8.99427 6.98267 9.06573 6.98267 9.09635C6.98267 10.648 7.58496 12.0976 8.67726 13.2001C9.58581 14.1087 10.7496 14.6599 12.0052 14.8233V20.3358H10.4535C10.035 20.3358 9.6879 20.6829 9.6879 21.1015C9.6879 21.52 10.035 21.8671 10.4535 21.8671H12.7708H15.0882C15.5067 21.8671 15.8538 21.52 15.8538 21.1015C15.8538 20.6829 15.5067 20.3358 15.0882 20.3358H13.5263V14.8233C14.7819 14.6599 15.9559 14.1087 16.8644 13.2001C17.9567 12.1078 18.559 10.648 18.559 8.99427L17.8342 3.52255C17.7934 3.24692 17.6607 2.99171 17.4463 2.80796H17.4565ZM9.18769 4.05339H16.3744L16.793 7.16696H8.77935L9.19789 4.05339H9.18769ZM15.7925 12.118C14.9861 12.9245 13.9142 13.3635 12.7708 13.3635C11.6377 13.3635 10.5658 12.9143 9.75936 12.118C8.9631 11.3218 8.52414 10.2703 8.51393 9.14739L8.57518 8.69822H16.9971L17.0482 9.09635C17.0482 10.2397 16.6092 11.3116 15.8027 12.118L15.7925 12.118Z" fill="#06a497"/>
</svg>
