<svg xmlns="http://www.w3.org/2000/svg" fill="none" viewBox="0 0 23 23">
  <g clipPath="url(#a)" stroke="#00A79A" stroke-width="1.25" stroke-linecap="round" stroke-linejoin="round">
    <path d="M11.7509 11.0624c-.7781.0025-1.5415-.213-2.20345-.6221-.66199-.4091-1.19617-.9954-1.54202-1.6925L7.4811 7.6973c-.12273-.24015-.31231-.43966-.54587-.57449-.23356-.13484-.50114-.19924-.77047-.18543-.26956.01697-.52815.11296-.7435.27598-.21535.16302-.37792.38585-.46741.64069L.828845 19.5415c-.060281.1704-.086402.3509-.076868.5313.009533.1805.054534.3573.13243.5203.077896.163.187163.3091.321543.4299.13439.1207.29126.2139.46165.274.1474.0512.30229.0775.45833.0779.28446.0001.56197-.088.79428-.2521.23231-.1642.40798-.3964.5028-.6646l1.48775-4.2167c.58207.4497 1.06324 1.0166 1.41237 1.664.34913.6475.55844 1.361.61438 2.0944 0 .3647.14487.7144.40273.9723.25786.2578.6076.4027.97227.4027.36467 0 .71441-.1449.97227-.4027.25787-.2579.40273-.6076.40273-.9723 0-3.5594-2.87191-5.8374-3.81425-6.4891l.70675-2.0038c.64958.7284 1.44644 1.3106 2.33786 1.708.89141.3975 1.85703.6011 2.83303.5974.3647 0 .7144-.1449.9723-.4027.2579-.2579.4027-.6076.4027-.9723s-.1448-.7144-.4027-.9723-.6076-.4027-.9723-.4027v0ZM9 5.90625c1.3289 0 2.4063-1.07731 2.4063-2.40625S10.3289 1.09375 9 1.09375c-1.32893 0-2.40625 1.07731-2.40625 2.40625S7.67107 5.90625 9 5.90625ZM.75 11.75l2.0625-4.8125m11 11 4.125-2.0625m-2.0625 1.0312v4.4688M16.5625.75 14.5 2.8125l2.0625 2.0625M14.5 2.8125h3.4375m.6875 16.5h2.75m0-16.5V4.875m0 3.4375v2.0625m0 3.4375v2.0625"/>
  </g>
  <defs>
    <clipPath id="a">
      <path fill="#fff" d="M.0625.0625h22v22h-22z"/>
    </clipPath>
  </defs>
</svg>