<svg fill="none" xmlns="http://www.w3.org/2000/svg" viewBox="0 0 18 18">
  <path d="M.00664139 8.98237c.0004406-.17025.03693961-.33847.10708961-.4936.070151-.15512.172362-.29363.299908-.4064l4.589501-4.4195c.14438-.1182.32902-.17572.51499-.16045.18596.01526.35874.10213.48192.24229.12317.14016.18712.32267.17837.50906-.00875.18638-.08951.3621-.22528.4901l-3.3185 3.3c-.01894.0168-.03233.03896-.0384.06354-.00606.02458-.00453.05043.00442.07412.00894.02368.02487.04409.04567.05853.0208.01444.04549.02222.07081.02231H17.2741c.191 0 .3741.07586.5092.21088.135.13503.2108.31816.2108.50912 0 .19096-.0758.37409-.2108.50912-.1351.13502-.3182.21088-.5092.21088H2.71864c-.02531.00024-.04995.00813-.07069.02263-.02075.0145-.03662.03494-.04554.05862-.00893.02369-.01048.04952-.00446.0741.00602.02458.01933.04677.03819.06365l3.3185 3.30003c.07553.061.13794.1366.18347.2224.04554.0857.07327.1798.08152.2765.00825.0967-.00315.1941-.03351.2864-.03036.0922-.07906.1773-.14317.2502-.0641.0729-.14229.1321-.22986.174-.08757.0419-.18271.0657-.2797.0699-.097.0042-.19384-.0112-.2847-.0454-.09087-.0342-.17388-.0864-.24405-.1535L.414139 9.88237c-.127688-.11268-.230026-.25116-.300268-.4063-.0702423-.15513-.10678901-.3234-.10722961-.4937Z" fill="#000"/>
</svg>