<svg width="18" height="18" viewBox="0 0 18 18" fill="none" xmlns="http://www.w3.org/2000/svg">
<path d="M0.00664139 8.98237C0.00708199 8.81212 0.043581 8.6439 0.113731 8.48877C0.183882 8.33365 0.286093 8.19514 0.413639 8.08237L5.00314 3.66287C5.14752 3.54467 5.33216 3.48715 5.51813 3.50242C5.70409 3.51768 5.87687 3.60455 6.00005 3.74471C6.12322 3.88487 6.18717 4.06738 6.17842 4.25377C6.16967 4.44015 6.08891 4.61587 5.95314 4.74387L2.63464 8.04387C2.6157 8.06067 2.60231 8.08283 2.59624 8.10741C2.59018 8.13199 2.59171 8.15784 2.60066 8.18153C2.6096 8.20521 2.62553 8.22562 2.64633 8.24006C2.66713 8.2545 2.69182 8.26228 2.71714 8.26237H17.2741C17.4651 8.26237 17.6482 8.33823 17.7833 8.47325C17.9183 8.60828 17.9941 8.79141 17.9941 8.98237C17.9941 9.17333 17.9183 9.35646 17.7833 9.49149C17.6482 9.62651 17.4651 9.70237 17.2741 9.70237H2.71864C2.69333 9.70261 2.66869 9.7105 2.64795 9.725C2.6272 9.7395 2.61133 9.75994 2.60241 9.78362C2.59348 9.80731 2.59193 9.83314 2.59795 9.85772C2.60397 9.8823 2.61728 9.90449 2.63614 9.92137L5.95464 13.2214C6.03017 13.2824 6.09258 13.358 6.13811 13.4438C6.18365 13.5295 6.21138 13.6236 6.21963 13.7203C6.22788 13.817 6.21648 13.9144 6.18612 14.0067C6.15576 14.0989 6.10706 14.184 6.04295 14.2569C5.97885 14.3298 5.90066 14.389 5.81309 14.4309C5.72552 14.4728 5.63038 14.4966 5.53339 14.5008C5.43639 14.505 5.33955 14.4896 5.24869 14.4554C5.15782 14.4212 5.07481 14.369 5.00464 14.3019L0.414139 9.88237C0.286451 9.76969 0.184113 9.63121 0.113871 9.47607C0.0436287 9.32094 0.00708199 9.15267 0.00664139 8.98237Z" fill="black"/>
</svg>
