<svg xmlns="http://www.w3.org/2000/svg" width="25" height="20" viewBox="0 0 25 20" fill="none">
<path d="M6.92486 0.517595C6.52235 0.515941 6.12877 0.634022 5.79596 0.856283C5.46316 1.07854 5.20673 1.39456 5.06047 1.76271C5.05641 1.77267 5.04627 1.77914 5.04272 1.7891L4.1194 3.86445H1.98868C1.46125 3.86445 0.955419 4.07014 0.58247 4.43628C0.209521 4.80241 0 5.29899 0 5.81678C0 6.33457 0.209521 6.83116 0.58247 7.19729C0.955419 7.56342 1.46125 7.76912 1.98868 7.76912H2.02419C1.45312 8.38722 1.13666 9.19177 1.13639 10.0263V15.5784C1.13632 15.6517 1.15097 15.7243 1.1795 15.792C1.20803 15.8597 1.24988 15.9212 1.30266 15.973C1.35543 16.0248 1.4181 16.0659 1.48706 16.0939C1.55603 16.1219 1.62994 16.1363 1.70458 16.1363H3.40916V18.9253C3.40916 19.0732 3.46902 19.2151 3.57558 19.3197C3.68214 19.4243 3.82666 19.4831 3.97735 19.4831H7.38651C7.46115 19.4832 7.53506 19.4688 7.60403 19.4408C7.673 19.4128 7.73566 19.3717 7.78843 19.3199C7.84121 19.2681 7.88306 19.2066 7.91159 19.1388C7.94012 19.0711 7.95477 18.9986 7.95471 18.9253V16.1363H17.0458V18.9253C17.0457 18.9986 17.0604 19.0711 17.0889 19.1388C17.1174 19.2066 17.1593 19.2681 17.2121 19.3199C17.2648 19.3717 17.3275 19.4128 17.3965 19.4408C17.4654 19.4688 17.5394 19.4832 17.614 19.4831H21.0232C21.0978 19.4832 21.1717 19.4688 21.2407 19.4408C21.3096 19.4128 21.3723 19.3717 21.4251 19.3199C21.4778 19.2681 21.5197 19.2066 21.5482 19.1388C21.5768 19.0711 21.5914 18.9986 21.5913 18.9253V16.1363H23.2959C23.3706 16.1363 23.4445 16.1219 23.5134 16.0939C23.5824 16.0659 23.6451 16.0248 23.6978 15.973C23.7506 15.9212 23.7925 15.8597 23.821 15.792C23.8495 15.7243 23.8642 15.6517 23.8641 15.5784V10.0263C23.8639 9.19175 23.5475 8.38717 22.9763 7.76912H23.0118C23.5393 7.76912 24.0451 7.56342 24.418 7.19729C24.791 6.83116 25.0005 6.33457 25.0005 5.81678C25.0005 5.29899 24.791 4.80241 24.418 4.43628C24.0451 4.07014 23.5393 3.86445 23.0118 3.86445H20.8811L19.9578 1.7901C19.9542 1.78014 19.9441 1.77366 19.94 1.7642C19.7938 1.39601 19.5374 1.07996 19.2046 0.85769C18.8718 0.635419 18.4782 0.517366 18.0756 0.519089L6.92486 0.517595ZM6.92486 1.63321H18.0756C18.3466 1.63321 18.8042 1.94648 18.8924 2.18106L18.9016 2.20746L20.8902 6.68986C20.7432 6.66867 20.5949 6.65702 20.4463 6.65499H4.55468C4.40609 6.65698 4.2578 6.66863 4.11078 6.68986L6.09945 2.20995C6.1025 2.20098 6.10554 2.19252 6.10808 2.18355C6.19686 1.94798 6.65395 1.6357 6.92486 1.6357V1.63321ZM1.98868 4.98007H3.62223L2.87648 6.6535H1.98868C1.76264 6.6535 1.54585 6.56534 1.38602 6.40843C1.22618 6.25152 1.13639 6.03869 1.13639 5.81678C1.13639 5.59487 1.22618 5.38205 1.38602 5.22514C1.54585 5.06822 1.76264 4.98007 1.98868 4.98007ZM21.3783 4.98007H23.0118C23.2379 4.98007 23.4547 5.06822 23.6145 5.22514C23.7743 5.38205 23.8641 5.59487 23.8641 5.81678C23.8641 6.03869 23.7743 6.25152 23.6145 6.40843C23.4547 6.56534 23.2379 6.6535 23.0118 6.6535H22.124L21.3783 4.98007ZM4.55468 7.76912H20.4463C20.7478 7.76804 21.0465 7.82581 21.325 7.93906C21.6036 8.05231 21.8564 8.21878 22.0688 8.4288C22.2812 8.63882 22.449 8.8882 22.5624 9.16244C22.6758 9.43668 22.7325 9.7303 22.7293 10.0263V15.0206H2.27328V10.0263C2.26998 9.73028 2.32666 9.43663 2.44002 9.16236C2.55338 8.88809 2.72115 8.63869 2.93358 8.42866C3.14602 8.21862 3.39887 8.05215 3.67743 7.93892C3.95599 7.8257 4.25471 7.76798 4.5562 7.76912H4.55468ZM3.92662 10.0004C3.78539 10.0134 3.65426 10.0779 3.55905 10.1812C3.46384 10.2844 3.41145 10.4189 3.4122 10.5582V13.3472C3.41207 13.4947 3.47147 13.6362 3.5774 13.7407C3.68333 13.8453 3.82715 13.9044 3.97735 13.905H6.311C7.38245 13.905 8.2388 13.0115 8.2388 11.9527C8.2388 10.8938 7.38398 10.0004 6.311 10.0004H3.97735C3.95961 9.99936 3.94183 9.99936 3.92409 10.0004H3.92662ZM18.6895 10.0004C17.6181 10.0004 16.7617 10.8938 16.7617 11.9527C16.7617 13.0115 17.6165 13.905 18.6895 13.905H21.0232C21.1738 13.905 21.3184 13.8463 21.4249 13.7416C21.5315 13.637 21.5913 13.4952 21.5913 13.3472V10.5582C21.5912 10.4103 21.5313 10.2685 21.4248 10.1639C21.3183 10.0593 21.1738 10.0005 21.0232 10.0004H18.6895ZM4.54555 11.116H6.311C6.74527 11.116 7.1014 11.4646 7.1014 11.9527C7.1014 12.4408 6.74679 12.7894 6.311 12.7894H4.54555V11.116ZM18.6885 11.116H20.4555V12.7894H18.6895C18.2552 12.7894 17.8996 12.4408 17.8996 11.9527C17.8996 11.4646 18.2542 11.116 18.6895 11.116H18.6885ZM4.54555 16.1363H6.81832V18.3675H4.54555V16.1363ZM18.1822 16.1363H20.455V18.3675H18.1822V16.1363Z" fill="#00A79A"/>
</svg>