<svg width="18" height="17" viewBox="0 0 18 17" fill="none" xmlns="http://www.w3.org/2000/svg">
<path d="M14.423 8.46317C14.4233 8.69386 14.3744 8.92196 14.2795 9.13223C14.1846 9.34251 14.046 9.53014 13.8729 9.6826L6.00765 16.6021C5.74701 16.8207 5.41116 16.9288 5.0719 16.9031C4.73264 16.8774 4.4169 16.72 4.19219 16.4645C3.96749 16.209 3.85166 15.8758 3.86946 15.536C3.88727 15.1962 4.0373 14.8769 4.28748 14.6463L11.1653 8.59577C11.1842 8.57922 11.1993 8.55883 11.2097 8.53596C11.2201 8.51309 11.2254 8.48828 11.2254 8.46317C11.2254 8.43807 11.2201 8.41325 11.2097 8.39039C11.1993 8.36752 11.1842 8.34713 11.1653 8.33058L4.28748 2.28003C4.0373 2.04944 3.88727 1.73012 3.86946 1.39035C3.85166 1.05059 3.96749 0.717336 4.19219 0.461861C4.4169 0.206386 4.73264 0.0489647 5.0719 0.0232576C5.41116 -0.00244947 5.74701 0.105598 6.00765 0.324298L13.8701 7.24164C14.0436 7.39436 14.1827 7.58227 14.278 7.79288C14.3734 8.0035 14.4228 8.23199 14.423 8.46317Z" fill="black"/>
</svg>
