<svg xmlns="http://www.w3.org/2000/svg" fill="none" viewBox="0 0 22 22">
  <path d="M.875 11.3125c0 5.7551 4.68238 10.4375 10.4375 10.4375 5.7551 0 10.4375-4.6824 10.4375-10.4375C21.75 5.55738 17.0676.875 11.3125.875 5.55738.875.875 5.55738.875 11.3125Zm1.625 0C2.5 6.45354 6.45354 2.5 11.3125 2.5c4.859 0 8.8125 3.95354 8.8125 8.8125 0 4.859-3.9535 8.8125-8.8125 8.8125-4.85896 0-8.8125-3.9535-8.8125-8.8125Z" fill="#00A79A" stroke="#00A79A" stroke-width=".25"/>
  <path d="m10.5593 11.3051-.0001.0001.0014.0033c.0412.1009.101.19.1768.2657l4.2961 4.297c0 .0001.0001.0001.0001.0002.1529.1539.3581.2384.5744.2384.2172 0 .4219-.087.5748-.2389.154-.1529.2386-.3581.2386-.5745 0-.2166-.0847-.4207-.2383-.5742l-4.0581-4.0591V7.5625c0-.44854-.364-.8125-.8125-.8125s-.8125.36396-.8125.8125V11c0 .0954.0164.189.0509.2819l.0001.0003.0033.0092.005.0137Z" fill="#00A79A" stroke="#00A79A" stroke-width=".25"/>
</svg>