<svg xmlns="http://www.w3.org/2000/svg" width="12" height="12" fill="none"><path fill="#9C0F00" d="M.22 10.719a.75.75 0 0 0 1.06 1.06l4.63-4.63a.125.125 0 0 1 .178 0l4.63 4.631a.75.75 0 0 0 1.061-1.06L7.15 6.088a.125.125 0 0 1 0-.177l4.631-4.63A.75.75 0 0 0 10.718.22L6.088 4.85a.125.125 0 0 1-.177 0L1.28.22A.75.75 0 0 0 .22 1.28l4.63 4.63a.125.125 0 0 1 0 .178l-4.63 4.63Z"/><path fill="#fff" d="M.22 10.719a.75.75 0 0 0 1.06 1.06l4.63-4.63a.125.125 0 0 1 .178 0l4.63 4.631a.75.75 0 0 0 1.061-1.06L7.15 6.088a.125.125 0 0 1 0-.177l4.631-4.63A.75.75 0 0 0 10.718.22L6.088 4.85a.125.125 0 0 1-.177 0L1.28.22A.75.75 0 0 0 .22 1.28l4.63 4.63a.125.125 0 0 1 0 .178l-4.63 4.63Z"/></svg>