<svg xmlns="http://www.w3.org/2000/svg" width="66" height="74" fill="none">
  <g>
    <circle cx="33.0003" cy="31.0002" r="22.6937" fill="#000" fill-opacity=".7" shape-rendering="crispEdges" transform="rotate(30 33.0003 31.0002)"/>
  </g>
  <path fill="#DC3621" d="M42.4569 24.4161c1.0112-.3045 1.7428.9626.9735 1.686l-8.6219 8.108-3.6842-6.3812 11.3326-3.4128Z"/>
  <path fill="#DC3621" d="M42.4569 24.4161c1.0112-.3045 1.7428.9626.9735 1.686l-8.6219 8.108-3.6842-6.3812 11.3326-3.4128Z"/>
  <path stroke="#DC3621" d="M22.7506 37.4815c-.5101.1605-.8822-.484-.4881-.8455l8.7401-8.0168L32.533 31.27l1.5305 2.6508-11.3129 3.5607Z"/>
  <path stroke="#fff" d="M22.7506 37.4815c-.5101.1605-.8822-.484-.4881-.8455l8.7401-8.0168L32.533 31.27l1.5305 2.6508-11.3129 3.5607Z"/>

</svg>