<svg xmlns="http://www.w3.org/2000/svg" fill="none" viewBox="0 0 20 20">
  <path fill-rule="evenodd" clip-rule="evenodd" d="M14.2 2c-.5523 0-1-.44771-1-1 0-.552284.4477-1 1-1h4.7999c.5523 0 1 .447708 1 .999988L20 5.79999c0 .55228-.4477 1-1 1.00001-.5523.00001-1-.4477-1-.99999V3.41419l-6.6929 6.69291c-.3906.3905-1.0237.3905-1.41425 0-.39052-.39052-.39052-1.02368 0-1.41421L16.5857 2H14.2ZM0 1C0 .447717.447715.00000143.999999.00000143H8.68143c.55228 0 1 .44771557 1 .99999857 0 .55229-.44772 1-1 1H2v16h16v-6.6814c0-.5523.4477-1 1-1 .5522 0 1 .4477 1 1V19c0 .5523-.4478 1-1 1H.999999C.447715 20 0 19.5523 0 19V1Z" fill="#9C0F00"/>
</svg>