<svg xmlns="http://www.w3.org/2000/svg" fill="none" viewBox="0 0 24 24">
  <g clipPath="url(#a)" fill-rule="evenodd" clip-rule="evenodd" fill="#00A79A">
    <path d="m10.9959 4.44228.0034.00372-.0034-.00372Zm.0837.08767L21.2916 15.186c.0739.0772.1155.182.1155.2912 0 .1092-.0416.2139-.1155.2912l-6.1442 6.4113c-.0741.0772-.1745.1205-.2791.1205-.1047 0-.205-.0433-.2791-.1205L4.37722 11.5237l.89264-6.06229 5.80974-.93146ZM4.2932 11.4364c.0012.0012.00239.0024.00356.0036l-.00356-.0036Zm17.5583 4.9155.5574.5817-6.1449 6.4121-.0003.0003c-.3703.3859-.8721.6026-1.3954.6026s-1.0252-.2167-1.3954-.6026l-.0003-.0003L3.19385 12.62c-.14262-.1445-.25314-.32-.32368-.5141-.07182-.1976-.10041-.4094-.08365-.62.00151-.0191.00367-.0381.00645-.057l.92848-6.30573c.03268-.32677.17197-.63236.39511-.86521.22314-.23284.516-.37819.82915-.41228l6.04299-.96885c.0181-.00291.0364-.00515.0546-.00674.2019-.01748.4049.01235.5942.08729.186.07361.3542.18893.4927.33775L22.4089 14.0208l.0004.0003c.3698.3863.5775.91.5775 1.4561 0 .546-.2077 1.0697-.5775 1.456l-.5578-.5813Z"/>
    <path d="M1.19923 1.21405c.30845-.321859.80855-.321859 1.117 0l5.52884 5.76923c.30845.32186.30845.8437 0 1.16556-.30845.32186-.80854.32186-1.11699 0L1.19923 2.37961c-.308447-.32186-.308447-.8437 0-1.16556Zm7.9285 12.43175c-.11974-.263-.18187-.5505-.18187-.8417s.06213-.5787.18187-.8417c.11414-.2507.27791-.4732.48034-.6528l2.11583-2.20775c.2699-.28163.7075-.28163.9773 0 .2699.28162.2699.73823 0 1.01985l-2.1378 2.2308c-.0165.0173-.0339.0336-.0521.0491-.0572.0487-.1034.1101-.1351.1797-.0317.0696-.0481.1457-.0481.2228s.0164.1532.0481.2228c.0317.0696.0779.131.1351.1797.0182.0154.0356.0318.0521.0491v-.0001c.0048.0042.0349.0262.1235.0423.1116.0202.2735.0228.4956-.0034.4505-.0531.9962-.2034 1.6108-.3747l.0329-.0091c.5758-.1605 1.2155-.3388 1.7774-.4052.5187-.0613 1.2393-.0658 1.733.4379.1956.1859.3524.4119.4606.664.111.2585.1684.5385.1684.8217s-.0574.5632-.1684.8217c-.1088.2533-.2667.4804-.4637.6668l-2.1194 2.1446c-.274.2772-.7115.2702-.9773-.0157-.2657-.2859-.2589-.7425.0151-1.0197l2.1286-2.1539c.0069-.007.0139-.0138.0211-.0205.0571-.0532.1029-.1184.1342-.1914.0313-.0729.0475-.152.0475-.2319 0-.08-.0162-.159-.0475-.232-.0313-.0729-.0771-.1382-.1342-.1914-.0106-.0099-.021-.0201-.031-.0306.0001 0 0 0-.0001-.0001-.0054-.0039-.1273-.0936-.6113-.0364-.4494.0531-.9945.2034-1.6093.3747l-.0298.0083c-.5768.1608-1.2183.3396-1.7824.4061-.517.061-1.2302.065-1.72518-.4252-.20448-.1803-.36981-.4042-.48479-.6567Zm1.43487-.3908c.0001-.0001.0003.0002.0008.0006l-.0008-.0006Z"/>
    <path d="M9.06192 9.49653c.26989-.28163.70747-.28163.97738 0l1.1426 1.19227c.2699.2817.2699.7383 0 1.0199-.2699.2816-.7075.2816-.9774 0l-1.14258-1.1923c-.2699-.2816-.2699-.73824 0-1.01987Zm5.70158 5.95117c.2699-.2816.7075-.2816.9774 0l1.1426 1.1923c.2699.2816.2699.7382 0 1.0199-.2699.2816-.7075.2816-.9774 0l-1.1426-1.1923c-.2699-.2817-.2699-.7383 0-1.0199Z"/>
  </g>
  <defs>
    <clipPath id="a">
      <path fill="#fff" d="M.922852.923828h22.1154v23.0769H.922852z"/>
    </clipPath>
  </defs>
</svg>